<svg xmlns="http://www.w3.org/2000/svg" width="600" height="200" viewBox="0 0 600 200"><rect width="100%" height="100%" fill="#EEE"/><path d="M213.65 62.475H226v74.3h-12.35zm37.05 74.3h-12.35v-51.3h7.55q2.4 0 3.15 2.25l.8 3.8q1.35-1.5 2.83-2.75 1.47-1.25 3.15-2.15 1.67-.9 3.6-1.43 1.92-.52 4.22-.52 4.85 0 7.98 2.62 3.12 2.63 4.67 6.98 1.2-2.55 3-4.38 1.8-1.82 3.95-2.97t4.58-1.7q2.42-.55 4.87-.55 4.25 0 7.55 1.3t5.55 3.8 3.43 6.1q1.17 3.6 1.17 8.25v32.65h-12.35v-32.65q0-4.9-2.15-7.38-2.15-2.47-6.3-2.47-1.9 0-3.52.65-1.63.65-2.85 1.87-1.23 1.23-1.93 3.08t-.7 4.25v32.65h-12.4v-32.65q0-5.15-2.07-7.5-2.08-2.35-6.08-2.35-2.7 0-5.02 1.32-2.33 1.33-4.33 3.63zm69.6-6.8q0-1.55.58-2.95.57-1.4 1.57-2.4t2.4-1.6 3-.6 2.98.6q1.37.6 2.4 1.6 1.02 1 1.62 2.4t.6 2.95q0 1.6-.6 2.97-.6 1.38-1.62 2.38-1.03 1-2.4 1.58-1.38.57-2.98.57t-3-.57q-1.4-.58-2.4-1.58t-1.57-2.38q-.58-1.37-.58-2.97m65.55-38.15-3.25 4.5q-.54.7-1.07 1.1t-1.53.4q-.94 0-1.85-.58-.9-.57-2.15-1.3-1.25-.72-2.97-1.3-1.73-.57-4.28-.57-3.25 0-5.7 1.17-2.45 1.18-4.07 3.38-1.63 2.2-2.43 5.32-.8 3.13-.8 7.08 0 4.1.88 7.3.87 3.2 2.52 5.37 1.65 2.18 4 3.3 2.35 1.13 5.3 1.13t4.78-.73q1.83-.72 3.08-1.6 1.25-.87 2.17-1.6.92-.72 2.08-.72 1.5 0 2.25 1.15l3.54 4.5q-2.04 2.4-4.45 4.02-2.4 1.63-4.97 2.6-2.58.98-5.3 1.38-2.73.4-5.43.4-4.75 0-8.95-1.78-4.2-1.77-7.35-5.17t-4.97-8.33q-1.83-4.92-1.83-11.22 0-5.65 1.63-10.48 1.62-4.82 4.77-8.35 3.15-3.52 7.8-5.52t10.7-2q5.75 0 10.08 1.85 4.32 1.85 7.77 5.3"/></svg>